{
  "accessors": [
    {
      "bufferView": 2,
      "componentType": 5126,
      "count": 65533,
      "max": [
        26.58216667175293,
        20.74989891052246,
        57.62737274169922
      ],
      "min": [
        -27.54092788696289,
        -22.15800666809082,
        -2.496079921722412
      ],
      "type": "VEC3"
    },
    {
      "bufferView": 2,
      "byteOffset": 786396,
      "componentType": 5126,
      "count": 65533,
      "max": [
        0.9999469518661499,
        0.9995449185371399,
        0.999859094619751
      ],
      "min": [
        -0.9999866485595703,
        -0.9999924898147583,
        -0.9999723434448242
      ],
      "type": "VEC3"
    },
    {
      "bufferView": 1,
      "componentType": 5126,
      "count": 65533,
      "max": [
        0.9528679847717285,
        0.9992190003395081
      ],
      "min": [
        0.0007810000097379088,
        0.0017099999822676182
      ],
      "type": "VEC2"
    },
    {
      "bufferView": 0,
      "componentType": 5125,
      "count": 65541,
      "type": "SCALAR"
    },
    {
      "bufferView": 2,
      "byteOffset": 1572792,
      "componentType": 5126,
      "count": 65533,
      "max": [
        25.894283294677734,
        21.813121795654297,
        57.6578369140625
      ],
      "min": [
        -28.232189178466797,
        -22.15800666809082,
        0.03691700100898743
      ],
      "type": "VEC3"
    },
    {
      "bufferView": 2,
      "byteOffset": 2359188,
      "componentType": 5126,
      "count": 65533,
      "max": [
        0.9992774724960327,
        0.9999579191207886,
        0.9998830556869507
      ],
      "min": [
        -0.9996572136878967,
        -0.9999878406524658,
        -0.9989473819732666
      ],
      "type": "VEC3"
    },
    {
      "bufferView": 1,
      "byteOffset": 524264,
      "componentType": 5126,
      "count": 65533,
      "max": [
        0.9950039982795715,
        0.9992190003395081
      ],
      "min": [
        0.002343999920412898,
        0.0008069999748840928
      ],
      "type": "VEC2"
    },
    {
      "bufferView": 0,
      "byteOffset": 262164,
      "componentType": 5125,
      "count": 65565,
      "type": "SCALAR"
    },
    {
      "bufferView": 2,
      "byteOffset": 3145584,
      "componentType": 5126,
      "count": 48885,
      "max": [
        25.525968551635742,
        21.850433349609375,
        54.95655822753906
      ],
      "min": [
        -27.593852996826172,
        -15.530389785766602,
        1.5007710456848145
      ],
      "type": "VEC3"
    },
    {
      "bufferView": 2,
      "byteOffset": 3732204,
      "componentType": 5126,
      "count": 48885,
      "max": [
        0.9999333620071411,
        0.9998964071273804,
        0.9998243451118469
      ],
      "min": [
        -0.9994868636131287,
        -0.999954342842102,
        -0.9999189376831055
      ],
      "type": "VEC3"
    },
    {
      "bufferView": 1,
      "byteOffset": 1048528,
      "componentType": 5126,
      "count": 48885,
      "max": [
        0.9433079957962036,
        0.849219024181366
      ],
      "min": [
        0.017968999221920967,
        0.0008430000161752105
      ],
      "type": "VEC2"
    },
    {
      "bufferView": 0,
      "byteOffset": 524424,
      "componentType": 5125,
      "count": 48894,
      "type": "SCALAR"
    }
  ],
  "asset": {
    "extras": {
      "author": "Arkify (https://sketchfab.com/arkify)",
      "license": "CC-BY-4.0 (http://creativecommons.org/licenses/by/4.0/)",
      "source": "https://sketchfab.com/3d-models/kiwi-slice-3d-fruit-scan-0a7b87d8b90744678766b2e6a0a09a07",
      "title": "Kiwi Slice 3D Fruit Scan"
    },
    "generator": "Sketchfab-12.66.0",
    "version": "2.0"
  },
  "bufferViews": [
    {
      "buffer": 0,
      "byteLength": 720000,
      "name": "floatBufferViews",
      "target": 34963
    },
    {
      "buffer": 0,
      "byteLength": 1439608,
      "byteOffset": 720000,
      "byteStride": 8,
      "name": "floatBufferViews",
      "target": 34962
    },
    {
      "buffer": 0,
      "byteLength": 4318824,
      "byteOffset": 2159608,
      "byteStride": 12,
      "name": "floatBufferViews",
      "target": 34962
    }
  ],
  "buffers": [
    {
      "byteLength": 6478432,
      "uri": "scene.bin"
    }
  ],
  "extensionsUsed": [
    "KHR_materials_unlit"
  ],
  "images": [
    {
      "uri": "textures/material_0.005_baseColor.png"
    }
  ],
  "materials": [
    {
      "doubleSided": true,
      "extensions": {
        "KHR_materials_unlit": {}
      },
      "name": "material_0.005",
      "pbrMetallicRoughness": {
        "baseColorTexture": {
          "index": 0
        },
        "metallicFactor": 0.0
      }
    }
  ],
  "meshes": [
    {
      "name": "Object_0",
      "primitives": [
        {
          "attributes": {
            "NORMAL": 1,
            "POSITION": 0,
            "TEXCOORD_0": 2
          },
          "indices": 3,
          "material": 0,
          "mode": 4
        }
      ]
    },
    {
      "name": "Object_1",
      "primitives": [
        {
          "attributes": {
            "NORMAL": 5,
            "POSITION": 4,
            "TEXCOORD_0": 6
          },
          "indices": 7,
          "material": 0,
          "mode": 4
        }
      ]
    },
    {
      "name": "Object_2",
      "primitives": [
        {
          "attributes": {
            "NORMAL": 9,
            "POSITION": 8,
            "TEXCOORD_0": 10
          },
          "indices": 11,
          "material": 0,
          "mode": 4
        }
      ]
    }
  ],
  "nodes": [
    {
      "children": [
        1
      ],
      "matrix": [
        1.0,
        0.0,
        0.0,
        0.0,
        0.0,
        2.220446049250313e-16,
        -1.0,
        0.0,
        0.0,
        1.0,
        2.220446049250313e-16,
        0.0,
        0.0,
        0.0,
        0.0,
        1.0
      ],
      "name": "Sketchfab_model"
    },
    {
      "children": [
        2,
        3,
        4
      ],
      "name": "KiwiSlice.obj.cleaner.materialmerger.gles"
    },
    {
      "mesh": 0,
      "name": "Object_2"
    },
    {
      "mesh": 1,
      "name": "Object_3"
    },
    {
      "mesh": 2,
      "name": "Object_4"
    }
  ],
  "samplers": [
    {
      "magFilter": 9729,
      "minFilter": 9987,
      "wrapS": 10497,
      "wrapT": 10497
    }
  ],
  "scene": 0,
  "scenes": [
    {
      "name": "Sketchfab_Scene",
      "nodes": [
        0
      ]
    }
  ],
  "textures": [
    {
      "sampler": 0,
      "source": 0
    }
  ]
}
